<svg version="1.1" id="Layer_1" xmlns="http://www.w3.org/2000/svg" xmlns:xlink="http://www.w3.org/1999/xlink" x="0px" y="0px"
	 width="100%" viewBox="0 0 1000 1000" enable-background="new 0 0 1000 1000" xml:space="preserve">
<path fill="#FFFFFF" opacity="1.000000" stroke="none" 
	d="
M471.000000,1.000000 
	C490.687561,1.000000 510.375122,1.000000 530.721680,1.389314 
	C539.389832,2.517844 547.420044,3.081468 555.403442,4.036387 
	C568.202515,5.567324 581.183289,6.416349 593.704224,9.247576 
	C615.141907,14.095055 636.471436,19.637272 657.486023,26.065804 
	C672.451050,30.643732 687.108521,36.525078 701.390137,42.963074 
	C718.835083,50.827095 736.291138,58.955154 752.734619,68.674049 
	C770.323059,79.069649 787.110840,90.947052 803.550537,103.119781 
	C817.343445,113.332703 830.691833,124.301636 843.237915,136.006790 
	C862.786377,154.245117 880.657288,174.091217 897.023376,195.335876 
	C914.737793,218.330826 930.372070,242.610764 943.907532,268.211670 
	C950.574951,280.822388 956.126648,294.032715 961.969360,307.067596 
	C971.659851,328.687012 979.405273,351.045563 984.846497,374.065552 
	C989.285767,392.846344 992.734680,411.887421 995.904053,430.932739 
	C997.942017,443.179749 998.661133,455.645294 1000.023499,468.007141 
	C1000.172302,469.357544 1000.666199,470.669952 1001.000000,472.000000 
	C1001.000000,491.020905 1001.000000,510.041779 1000.610046,529.724365 
	C998.154175,548.420410 997.036865,566.628052 993.779785,584.444641 
	C989.795654,606.237427 985.036804,628.006042 978.711731,649.218201 
	C973.087036,668.081604 965.521729,686.458313 957.600403,704.517944 
	C950.308838,721.141724 942.352966,737.632751 932.964050,753.137146 
	C921.620361,771.869568 908.893372,789.819458 895.936523,807.500793 
	C886.952454,819.760803 877.139465,831.538513 866.659790,842.544312 
	C854.686401,855.118774 841.783447,866.843018 828.866821,878.472900 
	C819.384216,887.010803 809.746887,895.556519 799.256653,902.755371 
	C781.750366,914.769104 763.598083,925.855408 745.551086,937.063843 
	C720.885315,952.383057 694.148315,963.324524 666.901978,972.968933 
	C641.828491,981.844116 616.171753,988.535828 589.918274,993.253235 
	C570.531311,996.736877 551.117859,999.046875 531.492126,1000.028381 
	C530.314819,1000.087280 529.163452,1000.664185 528.000000,1001.000000 
	C510.312439,1001.000000 492.624878,1001.000000 474.275635,1000.610046 
	C468.361023,999.810791 463.091644,999.549194 457.858459,998.963684 
	C443.728607,997.382751 429.510803,996.260803 415.521515,993.838562 
	C400.366486,991.214478 385.349823,987.649048 370.415497,983.922302 
	C341.561768,976.722107 313.884399,966.052979 287.075012,953.353638 
	C271.678894,946.060608 256.886780,937.435852 242.093796,928.938782 
	C215.697998,913.777161 191.384293,895.570496 168.956512,875.120422 
	C153.040863,860.608093 137.937469,845.053589 123.739708,828.852844 
	C110.540314,813.791443 98.548576,797.596069 86.875282,781.291321 
	C71.140717,759.313965 57.588017,735.927368 47.115788,710.975952 
	C38.412468,690.239197 29.537544,669.445984 22.895653,648.009460 
	C16.490158,627.335938 12.097661,605.942688 8.224074,584.610840 
	C5.074653,567.267029 4.010558,549.545044 1.975378,531.996155 
	C1.894921,531.302368 1.335989,530.664124 1.000001,530.000000 
	C1.000000,510.979095 1.000000,491.958221 1.389949,472.275635 
	C1.859051,467.624146 1.577098,463.588013 2.082182,459.652924 
	C3.909532,445.415955 5.561039,431.133392 8.111156,417.018433 
	C10.934073,401.393433 14.300322,385.842621 18.088326,370.421204 
	C25.258184,341.231903 36.329468,313.392761 49.043491,286.243073 
	C60.988792,260.734924 75.554108,236.740952 91.614952,213.553940 
	C105.746834,193.151794 121.497704,174.155426 138.507324,156.227219 
	C149.426437,144.718430 161.076660,133.800171 173.195480,123.559563 
	C187.510223,111.463356 202.310577,99.856674 217.600800,89.026573 
	C230.154785,80.134537 243.725754,72.676666 256.859589,64.605324 
	C275.181091,53.345905 294.789001,44.767818 314.658386,36.690681 
	C337.193054,27.530079 360.294220,20.211546 383.935150,14.535898 
	C407.739563,8.821000 431.787811,4.694221 456.235321,2.971780 
	C461.178650,2.623497 466.079529,1.672909 471.000000,1.000000 
M593.026306,750.990234 
	C593.026306,750.990234 593.015686,751.055115 593.729553,750.933960 
	C602.161804,735.359985 610.669312,719.826172 619.007019,704.201721 
	C629.114929,685.260254 639.079346,666.242126 649.665833,646.839844 
	C652.487976,641.315369 655.310181,635.790894 658.729736,629.873718 
	C667.417664,613.513062 676.126221,597.163330 684.783936,580.786682 
	C688.592163,573.583252 692.296814,566.325073 696.617737,558.697266 
	C697.803345,556.711426 699.070129,554.768982 700.161316,552.732544 
	C706.407471,541.074890 712.665955,529.423340 718.806763,517.710205 
	C721.687439,512.215576 724.314026,506.587799 727.639404,500.673584 
	C729.777527,496.941986 731.990234,493.250793 734.039246,489.470886 
	C739.281982,479.799347 744.509705,470.118652 749.624512,460.379181 
	C751.909241,456.028564 753.908630,451.528137 756.607361,446.705536 
	C766.071533,429.136078 775.535706,411.566589 785.499207,393.673279 
	C785.667480,393.116364 785.835754,392.559448 786.000000,392.000000 
	C786.000000,392.000000 786.003967,392.003357 786.564941,391.608032 
	C789.693237,385.777679 792.852783,379.963837 795.943909,374.113800 
	C804.363037,358.180023 812.753235,342.230927 821.727539,325.880524 
	C822.233948,325.026245 822.773682,324.189819 823.241760,323.315033 
	C836.176880,299.139374 849.108948,274.962128 862.031799,250.779861 
	C867.573792,240.409225 873.094360,230.027100 878.797913,219.325089 
	C877.716736,219.189941 877.081970,218.970139 876.492737,219.057648 
	C864.166565,220.888565 851.769043,222.357956 839.543762,224.718063 
	C825.728882,227.385056 811.921997,230.328430 798.376770,234.103149 
	C777.132019,240.023544 756.109558,246.741791 734.254822,253.050339 
	C730.100952,254.693146 725.880859,256.187439 721.804626,258.004425 
	C704.097900,265.897125 686.433167,273.883881 668.078491,282.026398 
	C661.024048,285.665283 653.763062,288.957794 646.958984,293.016357 
	C633.476501,301.058411 620.246216,309.523315 606.302185,317.966400 
	C605.529236,318.621246 604.756226,319.276062 603.421692,320.055298 
	C603.003967,320.389526 602.586243,320.723724 601.541199,321.339691 
	C587.945862,331.765533 574.350525,342.191376 560.804504,352.681580 
	C560.804504,352.681580 560.725037,352.697571 560.133179,352.876984 
	C559.368530,353.562927 558.603882,354.248871 557.229004,355.191315 
	C551.770813,360.109161 546.312622,365.027008 540.262085,370.230164 
	C527.189697,383.848450 514.117371,397.466736 500.424530,410.845856 
	C498.994537,409.461487 497.564514,408.077087 495.860657,406.098907 
	C495.180054,405.169189 494.613129,404.123718 493.802002,403.326843 
	C477.841278,387.645935 462.077087,371.754303 445.766632,356.444916 
	C438.458527,349.585358 430.044281,343.904358 421.836670,337.098328 
	C406.620209,326.814178 391.403778,316.530029 375.985840,305.633575 
	C359.494537,296.623901 343.115295,287.399567 326.459686,278.704651 
	C319.267365,274.949951 311.503815,272.289490 303.431854,268.877777 
	C303.066498,268.712555 302.701141,268.547333 301.913788,268.090576 
	C301.594513,268.197754 301.275208,268.304901 301.039551,267.622803 
	C294.074188,264.678192 287.192780,261.511719 280.124664,258.838837 
	C268.258362,254.351501 256.273254,250.178299 243.941498,245.357056 
	C243.416840,245.484589 242.892181,245.612106 242.180771,245.322311 
	C241.959412,245.073074 241.683685,244.970825 241.027176,244.443832 
	C237.726471,243.511841 234.425751,242.579865 230.577316,241.154236 
	C195.534790,230.678314 159.830963,223.492065 122.435402,218.680740 
	C127.938766,228.840897 132.811920,237.850571 137.697189,246.853683 
	C145.737488,261.671265 153.785614,276.484558 161.905701,291.998505 
	C170.220993,307.386841 178.536270,322.775208 186.841827,338.045227 
	C186.841827,338.045227 186.784302,338.149078 186.862274,338.816681 
	C187.555862,339.926178 188.249451,341.035675 189.008209,342.846893 
	C190.316376,345.301727 191.602402,347.768646 192.936432,350.209320 
	C199.849030,362.856171 206.773880,375.496368 213.833313,388.773224 
	C214.248428,389.520264 214.663528,390.267273 215.093491,391.577179 
	C215.358536,391.829010 215.623596,392.080811 215.909058,392.708710 
	C215.909058,392.708710 216.124710,393.017456 216.145401,393.565338 
	C216.392975,393.821106 216.640564,394.076874 216.944580,395.023132 
	C219.214859,399.244202 221.463837,403.476929 223.759338,407.684235 
	C230.788239,420.567139 237.834991,433.440247 244.923935,447.015564 
	C254.437317,464.784302 263.911377,482.574249 273.480896,500.312683 
	C278.177643,509.018768 283.051544,517.629333 287.847076,526.995300 
	C296.851685,543.968445 305.793640,560.975220 314.884033,577.902283 
	C320.475800,588.314697 326.294495,598.605225 332.116608,609.656799 
	C342.615906,629.270447 353.080963,648.902527 363.630249,668.489258 
	C368.287598,677.136536 373.115936,685.691650 377.931122,694.986023 
	C383.802948,706.099243 389.613342,717.245483 395.572968,728.311462 
	C398.499207,733.744995 401.702240,739.029419 404.739319,744.728149 
	C404.739319,744.728149 404.962555,744.996460 404.908569,745.741821 
	C405.549286,746.642151 406.190002,747.542542 406.907318,749.126160 
	C411.585571,758.035706 416.198914,766.980225 420.966583,775.841675 
	C423.799591,781.107300 426.875549,786.242188 429.920044,792.119019 
	C440.550171,811.873535 451.180328,831.628113 461.929169,852.063843 
	C474.711914,876.005005 487.494659,899.946167 500.423950,924.161743 
	C501.248260,923.264099 501.669830,922.955994 501.892151,922.541138 
	C511.666382,904.302551 521.431946,886.059387 531.179077,867.806335 
	C540.173035,850.963745 549.144958,834.109314 558.713196,816.850037 
	C564.044189,806.866577 569.462036,796.928284 574.677795,786.884949 
	C578.595337,779.341431 582.253357,771.663147 586.642273,763.723572 
	C588.403809,760.450745 590.165283,757.177979 592.365906,753.449585 
	C592.606079,752.638611 592.846313,751.827576 593.026306,750.990234 
z"/>
<path fill="#47704C" opacity="1.000000" stroke="none" 
	d="
M528.468628,1001.000000 
	C529.163452,1000.664185 530.314819,1000.087280 531.492126,1000.028381 
	C551.117859,999.046875 570.531311,996.736877 589.918274,993.253235 
	C616.171753,988.535828 641.828491,981.844116 666.901978,972.968933 
	C694.148315,963.324524 720.885315,952.383057 745.551086,937.063843 
	C763.598083,925.855408 781.750366,914.769104 799.256653,902.755371 
	C809.746887,895.556519 819.384216,887.010803 828.866821,878.472900 
	C841.783447,866.843018 854.686401,855.118774 866.659790,842.544312 
	C877.139465,831.538513 886.952454,819.760803 895.936523,807.500793 
	C908.893372,789.819458 921.620361,771.869568 932.964050,753.137146 
	C942.352966,737.632751 950.308838,721.141724 957.600403,704.517944 
	C965.521729,686.458313 973.087036,668.081604 978.711731,649.218201 
	C985.036804,628.006042 989.795654,606.237427 993.779785,584.444641 
	C997.036865,566.628052 998.154175,548.420410 1000.610046,530.193054 
	C1001.000000,686.927246 1001.000000,843.854431 1001.000000,1001.000000 
	C843.645813,1001.000000 686.291565,1001.000000 528.468628,1001.000000 
z"/>
<path fill="#47704C" opacity="1.000000" stroke="none" 
	d="
M1001.000000,471.531342 
	C1000.666199,470.669952 1000.172302,469.357544 1000.023499,468.007141 
	C998.661133,455.645294 997.942017,443.179749 995.904053,430.932739 
	C992.734680,411.887421 989.285767,392.846344 984.846497,374.065552 
	C979.405273,351.045563 971.659851,328.687012 961.969360,307.067596 
	C956.126648,294.032715 950.574951,280.822388 943.907532,268.211670 
	C930.372070,242.610764 914.737793,218.330826 897.023376,195.335876 
	C880.657288,174.091217 862.786377,154.245117 843.237915,136.006790 
	C830.691833,124.301636 817.343445,113.332703 803.550537,103.119781 
	C787.110840,90.947052 770.323059,79.069649 752.734619,68.674049 
	C736.291138,58.955154 718.835083,50.827095 701.390137,42.963074 
	C687.108521,36.525078 672.451050,30.643732 657.486023,26.065804 
	C636.471436,19.637272 615.141907,14.095055 593.704224,9.247576 
	C581.183289,6.416349 568.202515,5.567324 555.403442,4.036387 
	C547.420044,3.081468 539.389832,2.517844 531.190308,1.389314 
	C687.593811,1.000000 844.187622,1.000000 1001.000000,1.000000 
	C1001.000000,157.687500 1001.000000,314.375092 1001.000000,471.531342 
z"/>
<path fill="#47704C" opacity="1.000000" stroke="none" 
	d="
M1.000001,530.468628 
	C1.335989,530.664124 1.894921,531.302368 1.975378,531.996155 
	C4.010558,549.545044 5.074653,567.267029 8.224074,584.610840 
	C12.097661,605.942688 16.490158,627.335938 22.895653,648.009460 
	C29.537544,669.445984 38.412468,690.239197 47.115788,710.975952 
	C57.588017,735.927368 71.140717,759.313965 86.875282,781.291321 
	C98.548576,797.596069 110.540314,813.791443 123.739708,828.852844 
	C137.937469,845.053589 153.040863,860.608093 168.956512,875.120422 
	C191.384293,895.570496 215.697998,913.777161 242.093796,928.938782 
	C256.886780,937.435852 271.678894,946.060608 287.075012,953.353638 
	C313.884399,966.052979 341.561768,976.722107 370.415497,983.922302 
	C385.349823,987.649048 400.366486,991.214478 415.521515,993.838562 
	C429.510803,996.260803 443.728607,997.382751 457.858459,998.963684 
	C463.091644,999.549194 468.361023,999.810791 473.806946,1000.610046 
	C316.406403,1001.000000 158.812805,1001.000000 1.000000,1001.000000 
	C1.000000,844.312500 1.000000,687.624939 1.000001,530.468628 
z"/>
<path fill="#47704C" opacity="1.000000" stroke="none" 
	d="
M470.531342,1.000000 
	C466.079529,1.672909 461.178650,2.623497 456.235321,2.971780 
	C431.787811,4.694221 407.739563,8.821000 383.935150,14.535898 
	C360.294220,20.211546 337.193054,27.530079 314.658386,36.690681 
	C294.789001,44.767818 275.181091,53.345905 256.859589,64.605324 
	C243.725754,72.676666 230.154785,80.134537 217.600800,89.026573 
	C202.310577,99.856674 187.510223,111.463356 173.195480,123.559563 
	C161.076660,133.800171 149.426437,144.718430 138.507324,156.227219 
	C121.497704,174.155426 105.746834,193.151794 91.614952,213.553940 
	C75.554108,236.740952 60.988792,260.734924 49.043491,286.243073 
	C36.329468,313.392761 25.258184,341.231903 18.088326,370.421204 
	C14.300322,385.842621 10.934073,401.393433 8.111156,417.018433 
	C5.561039,431.133392 3.909532,445.415955 2.082182,459.652924 
	C1.577098,463.588013 1.859051,467.624146 1.389949,471.806946 
	C1.000000,315.072998 1.000000,158.145981 1.000000,1.000000 
	C157.354156,1.000000 313.708435,1.000000 470.531342,1.000000 
z"/>
<path fill="#1790E4" opacity="1.000000" stroke="none" 
	d="
M377.866699,694.288635 
	C373.115936,685.691650 368.287598,677.136536 363.630249,668.489258 
	C353.080963,648.902527 342.615906,629.270447 332.229248,608.992188 
	C332.837341,606.826660 333.316772,605.320312 333.832825,603.826538 
	C334.355804,602.312744 334.499298,600.380493 335.533661,599.382935 
	C339.090454,595.952759 342.939087,593.086609 348.292786,592.561157 
	C350.199677,592.373962 351.923187,590.053223 353.673004,588.635559 
	C354.657074,587.838257 355.389282,586.651550 356.465546,586.059387 
	C363.400024,582.244019 370.413818,578.573059 377.371002,574.798401 
	C383.967133,571.219604 390.428406,567.377991 397.128601,564.009155 
	C403.843262,560.633057 411.374054,558.537109 417.403076,554.265320 
	C421.196960,551.577271 424.327332,548.661621 429.029785,546.993774 
	C435.980316,544.528687 442.359955,540.416016 448.898560,536.850647 
	C450.880096,535.770142 452.459290,533.954895 454.436340,532.862671 
	C462.065765,528.647827 470.310822,525.867249 477.365967,520.190857 
	C483.209534,515.489197 490.781738,512.881531 497.700592,509.582031 
	C512.100403,502.714935 525.314026,493.811401 539.137024,485.987488 
	C544.945129,482.700043 546.486328,479.751404 545.255981,474.245941 
	C548.674927,479.976837 551.814270,485.518616 555.002625,491.416840 
	C559.768921,501.992249 565.049011,511.995667 569.066467,522.482727 
	C574.548096,536.792236 579.067810,551.470215 583.998108,566.325378 
	C584.308777,567.435852 584.621277,568.211182 584.965698,569.233398 
	C584.997498,569.480347 585.041321,569.976501 584.613525,569.983521 
	C582.377930,570.122559 580.167297,569.635010 578.836426,570.500488 
	C574.498108,573.321594 570.587341,576.791931 566.311707,579.719910 
	C561.615540,582.935974 556.867737,586.153931 551.835449,588.783630 
	C544.409790,592.664124 536.595154,595.800049 529.167786,599.677551 
	C522.963257,602.916504 517.152710,606.900879 511.031342,610.310425 
	C502.492828,615.066223 493.762604,619.478394 485.234497,624.252075 
	C476.807587,628.969116 468.641846,634.159119 460.156708,638.764160 
	C450.938477,643.767029 441.444427,648.259399 432.159729,653.143616 
	C429.728607,654.422546 427.789032,656.648987 425.342682,657.883179 
	C419.673035,660.743652 413.678467,662.979858 408.097809,665.992004 
	C400.676849,669.997437 393.512939,674.481079 386.262177,678.798889 
	C383.633392,680.364319 381.230255,682.416931 378.447571,683.592834 
	C372.704742,686.019775 378.633026,688.776428 378.010193,691.305542 
	C377.776611,692.254150 377.903931,693.291687 377.866699,694.288635 
z"/>
<path fill="#1C9DE1" opacity="1.000000" stroke="none" 
	d="
M544.976379,474.056824 
	C546.486328,479.751404 544.945129,482.700043 539.137024,485.987488 
	C525.314026,493.811401 512.100403,502.714935 497.700592,509.582031 
	C490.781738,512.881531 483.209534,515.489197 477.365967,520.190857 
	C470.310822,525.867249 462.065765,528.647827 454.436340,532.862671 
	C452.459290,533.954895 450.880096,535.770142 448.898560,536.850647 
	C442.359955,540.416016 435.980316,544.528687 429.029785,546.993774 
	C424.327332,548.661621 421.196960,551.577271 417.403076,554.265320 
	C411.374054,558.537109 403.843262,560.633057 397.128601,564.009155 
	C390.428406,567.377991 383.967133,571.219604 377.371002,574.798401 
	C370.413818,578.573059 363.400024,582.244019 356.465546,586.059387 
	C355.389282,586.651550 354.657074,587.838257 353.673004,588.635559 
	C351.923187,590.053223 350.199677,592.373962 348.292786,592.561157 
	C342.939087,593.086609 339.090454,595.952759 335.533661,599.382935 
	C334.499298,600.380493 334.355804,602.312744 333.832825,603.826538 
	C333.316772,605.320312 332.837341,606.826660 332.176575,608.639038 
	C326.294495,598.605225 320.475800,588.314697 314.884033,577.902283 
	C305.793640,560.975220 296.851685,543.968445 287.996094,526.295410 
	C287.996979,522.904297 287.848785,520.213196 287.727295,518.006592 
	C291.618896,515.602295 295.244751,513.189636 299.033051,511.066833 
	C303.440735,508.597046 307.994110,506.387787 312.476501,504.050598 
	C313.648956,503.439240 314.768829,502.724518 315.953461,502.139496 
	C327.690094,496.342987 339.215454,490.196014 349.905701,482.566772 
	C351.264923,481.596741 353.279694,481.586792 354.934204,480.978333 
	C357.005280,480.216705 359.083313,479.422150 361.037048,478.408112 
	C362.919617,477.431000 364.629517,476.126465 366.447235,475.018219 
	C370.701050,472.424591 374.920624,469.768066 379.253967,467.313477 
	C383.755768,464.763428 388.359406,462.390747 392.947266,459.995636 
	C398.253723,457.225281 403.643036,454.609558 408.898041,451.746216 
	C412.507843,449.779266 415.712372,446.509125 419.522552,445.599426 
	C425.325134,444.213959 429.563232,440.690887 434.374176,437.784454 
	C440.875793,433.856659 447.754486,430.550964 454.493011,427.019623 
	C455.484558,426.500000 456.670013,426.339478 457.639221,425.789734 
	C467.535461,420.176819 477.326172,414.370575 487.337219,408.972351 
	C489.926544,407.576172 493.183990,407.419006 496.134521,406.692749 
	C497.564514,408.077087 498.994537,409.461487 500.868774,411.269592 
	C513.869934,429.144470 526.426880,446.595612 539.005737,464.286865 
	C539.027649,464.527008 539.075439,465.007721 539.146484,465.238831 
	C539.403442,465.754333 539.661011,465.939148 539.991638,466.009979 
	C539.993225,465.995575 539.971558,466.016907 540.005859,466.357361 
	C541.021118,468.146637 542.002014,469.595490 543.113037,471.317871 
	C543.820862,472.413239 544.398621,473.235046 544.976379,474.056824 
z"/>
<path fill="#21A9DD" opacity="1.000000" stroke="none" 
	d="
M495.997589,406.395813 
	C493.183990,407.419006 489.926544,407.576172 487.337219,408.972351 
	C477.326172,414.370575 467.535461,420.176819 457.639221,425.789734 
	C456.670013,426.339478 455.484558,426.500000 454.493011,427.019623 
	C447.754486,430.550964 440.875793,433.856659 434.374176,437.784454 
	C429.563232,440.690887 425.325134,444.213959 419.522552,445.599426 
	C415.712372,446.509125 412.507843,449.779266 408.898041,451.746216 
	C403.643036,454.609558 398.253723,457.225281 392.947266,459.995636 
	C388.359406,462.390747 383.755768,464.763428 379.253967,467.313477 
	C374.920624,469.768066 370.701050,472.424591 366.447235,475.018219 
	C364.629517,476.126465 362.919617,477.431000 361.037048,478.408112 
	C359.083313,479.422150 357.005280,480.216705 354.934204,480.978333 
	C353.279694,481.586792 351.264923,481.596741 349.905701,482.566772 
	C339.215454,490.196014 327.690094,496.342987 315.953461,502.139496 
	C314.768829,502.724518 313.648956,503.439240 312.476501,504.050598 
	C307.994110,506.387787 303.440735,508.597046 299.033051,511.066833 
	C295.244751,513.189636 291.618896,515.602295 287.727295,518.006592 
	C287.848785,520.213196 287.996979,522.904297 287.995239,525.939270 
	C283.051544,517.629333 278.177643,509.018768 273.480896,500.312683 
	C263.911377,482.574249 254.437317,464.784302 244.935822,446.230042 
	C243.844421,434.458771 244.769211,433.143677 253.786087,433.452789 
	C253.695007,431.861053 253.606033,430.306000 253.515060,428.716217 
	C257.688568,427.474487 261.875610,426.247314 266.049225,424.976105 
	C267.378571,424.571167 268.860443,424.312988 269.950226,423.535767 
	C275.141022,419.833984 279.394806,413.874695 287.205627,416.942139 
	C287.834259,417.189026 288.750214,416.704254 289.532623,416.559479 
	C289.160980,416.246063 288.789337,415.932617 288.417694,415.619202 
	C290.161896,412.936462 291.906128,410.253693 293.798431,407.343201 
	C298.214478,411.994385 301.496765,411.758057 306.096069,408.566040 
	C309.912537,405.917328 314.188477,403.727844 318.553680,402.139709 
	C321.784119,400.964447 323.165649,400.260773 320.319519,397.282654 
	C319.696686,396.631012 319.526215,395.547089 318.855377,393.980042 
	C324.782623,392.936096 329.226196,388.703461 335.726074,389.844543 
	C342.251160,390.989960 348.643494,385.886505 349.066925,379.828461 
	C357.361542,381.820587 363.613739,377.056335 370.138977,373.228485 
	C371.565704,372.391571 372.671692,371.007904 373.925415,369.876038 
	C372.661469,369.107910 371.397522,368.339783 370.138184,367.574432 
	C373.592255,360.711487 379.460815,368.318237 383.714050,365.196136 
	C383.964844,361.642090 384.264709,357.912476 389.660522,359.534912 
	C389.924713,359.614319 390.505066,358.416748 391.026031,357.902893 
	C395.337097,353.650482 398.976166,348.593658 406.562103,350.376770 
	C412.689209,351.817017 417.528625,348.397614 422.000244,344.070618 
	C420.972565,342.846191 420.082581,341.785828 418.948090,340.434143 
	C420.154694,339.393677 421.143341,338.541107 422.132019,337.688538 
	C430.044281,343.904358 438.458527,349.585358 445.766632,356.444916 
	C462.077087,371.754303 477.841278,387.645935 493.802002,403.326843 
	C494.613129,404.123718 495.180054,405.169189 495.997589,406.395813 
z"/>
<path fill="#1284E7" opacity="1.000000" stroke="none" 
	d="
M377.898926,694.637329 
	C377.903931,693.291687 377.776611,692.254150 378.010193,691.305542 
	C378.633026,688.776428 372.704742,686.019775 378.447571,683.592834 
	C381.230255,682.416931 383.633392,680.364319 386.262177,678.798889 
	C393.512939,674.481079 400.676849,669.997437 408.097809,665.992004 
	C413.678467,662.979858 419.673035,660.743652 425.342682,657.883179 
	C427.789032,656.648987 429.728607,654.422546 432.159729,653.143616 
	C441.444427,648.259399 450.938477,643.767029 460.156708,638.764160 
	C468.641846,634.159119 476.807587,628.969116 485.234497,624.252075 
	C493.762604,619.478394 502.492828,615.066223 511.031342,610.310425 
	C517.152710,606.900879 522.963257,602.916504 529.167786,599.677551 
	C536.595154,595.800049 544.409790,592.664124 551.835449,588.783630 
	C556.867737,586.153931 561.615540,582.935974 566.311707,579.719910 
	C570.587341,576.791931 574.498108,573.321594 578.836426,570.500488 
	C580.167297,569.635010 582.377930,570.122559 584.860962,569.995483 
	C585.536194,570.000305 586.031860,570.019531 586.030029,570.392212 
	C586.078186,571.507935 586.128296,572.250916 586.146851,573.288574 
	C586.418457,574.046875 586.721558,574.510498 587.049072,575.229919 
	C587.090454,575.656189 587.107544,575.826599 587.099487,576.296753 
	C587.358093,577.094543 587.641785,577.592590 587.945557,578.494385 
	C589.146118,584.879211 590.611145,590.820740 591.450317,596.849365 
	C593.449341,611.210999 595.152649,625.613831 596.567932,640.002258 
	C595.103821,641.084717 593.414673,642.013794 593.113525,643.274353 
	C592.323242,646.583374 591.105469,646.799255 588.810974,644.621948 
	C588.134338,643.979858 587.307373,643.496155 586.421692,642.846191 
	C584.478455,644.596741 582.353271,645.940002 581.027100,647.840698 
	C579.071899,650.642944 577.379028,653.033386 573.418274,651.344727 
	C572.705811,651.041016 571.492737,651.491699 570.679565,651.916870 
	C567.187500,653.742737 563.950012,656.341492 560.257690,657.425842 
	C555.674133,658.771851 552.575928,660.801575 552.419434,666.029053 
	C550.223633,665.296387 547.379639,663.909973 547.092285,664.319153 
	C544.161377,668.492065 539.593506,669.511902 535.304688,671.118347 
	C535.167908,671.169617 535.107910,671.403503 534.971619,671.481262 
	C533.440247,672.355408 531.925110,673.262268 530.359436,674.070862 
	C525.586365,676.536011 519.963135,677.533508 516.632263,682.490723 
	C516.004517,683.424927 514.270203,683.637573 513.026001,684.131531 
	C509.127136,685.679504 504.648438,686.462402 501.455719,688.920349 
	C497.335114,692.092712 494.207031,696.568115 490.717682,700.540527 
	C489.059387,702.428345 487.697723,704.327271 485.300262,701.173767 
	C484.809204,700.527893 482.456665,700.538513 481.531769,701.132874 
	C479.338501,702.542297 477.486969,704.483521 475.152435,706.509094 
	C472.561768,704.495911 470.511719,704.351135 469.586426,709.250122 
	C468.954712,712.594666 460.528931,717.575684 458.474579,716.347717 
	C455.002716,714.272400 453.377014,715.206787 451.668060,718.698792 
	C450.586151,720.909485 449.229462,724.764343 444.945251,721.827209 
	C444.245758,721.347595 441.971893,722.862061 440.600342,723.730652 
	C438.105347,725.310852 435.741272,727.097839 433.322571,728.798584 
	C432.250305,729.905212 430.243408,731.831360 430.055695,731.667969 
	C426.490234,728.563599 424.122314,730.994141 421.582336,733.167419 
	C418.926239,735.440125 416.230469,737.674683 413.439819,739.776978 
	C412.599426,740.410095 411.190704,741.098999 410.374115,740.813416 
	C406.801392,739.564331 405.463348,741.349854 404.780060,744.381348 
	C401.702240,739.029419 398.499207,733.744995 395.572968,728.311462 
	C389.613342,717.245483 383.802948,706.099243 377.898926,694.637329 
z"/>
<path fill="#0C77EA" opacity="1.000000" stroke="none" 
	d="
M586.026917,764.044800 
	C582.253357,771.663147 578.595337,779.341431 574.677795,786.884949 
	C569.462036,796.928284 564.044189,806.866577 558.217407,816.734375 
	C555.989014,813.404297 554.256409,810.189758 552.916626,807.703979 
	C548.200012,809.683899 544.357849,812.199341 540.221802,812.851746 
	C530.551392,814.377258 520.711243,814.797058 511.000122,816.110168 
	C507.316925,816.608215 502.770416,817.335999 500.453796,819.733459 
	C497.207031,823.093567 495.278595,823.567932 492.895935,820.348389 
	C490.090912,821.711060 487.687042,822.878845 485.107941,824.131714 
	C485.595459,827.541870 484.178406,829.687866 480.539642,830.357605 
	C479.688324,830.514282 478.424744,831.378601 478.302429,832.082642 
	C477.307312,837.810425 472.740753,838.282471 468.395020,838.989075 
	C462.017059,840.026123 460.466797,842.231445 461.882202,848.406006 
	C462.097076,849.343506 461.846039,850.387756 461.810486,851.382629 
	C451.180328,831.628113 440.550171,811.873535 429.922028,791.372192 
	C429.878204,788.358276 430.660248,785.582581 429.636475,783.916321 
	C426.110352,778.177368 429.499176,778.011719 433.625397,778.355347 
	C436.317719,771.021973 439.918427,768.889526 444.074280,770.860168 
	C446.906128,768.791016 449.578735,767.375000 451.544952,765.292175 
	C455.913177,760.664917 455.929016,769.565552 459.476654,767.438904 
	C459.877838,765.387451 459.608551,762.479553 460.928772,761.149536 
	C462.420380,759.646851 465.385559,759.677063 467.614990,758.799438 
	C468.423920,758.480957 468.883484,757.369812 469.631927,756.786499 
	C472.843018,754.283936 475.829712,751.307678 479.400238,749.490417 
	C486.998230,745.623108 494.763672,741.972168 502.760742,739.055847 
	C506.072174,737.848328 508.752136,731.309570 513.912720,737.795837 
	C516.297791,734.990417 518.362549,732.561768 520.265320,730.323608 
	C523.061340,728.659851 525.998108,727.124573 528.693359,725.243286 
	C530.963684,723.658630 532.683167,721.000183 535.128906,720.016357 
	C539.058899,718.435425 544.309937,719.496399 545.869507,713.810059 
	C545.932251,713.581055 546.445862,713.279297 546.690491,713.325195 
	C551.724609,714.269958 553.401550,709.572449 556.706055,707.627930 
	C558.841003,706.371521 561.921265,706.730286 564.574524,706.342468 
	C565.910156,706.147156 567.557312,706.325623 568.515442,705.605591 
	C573.015381,702.224121 577.192261,698.407166 581.739075,695.095337 
	C586.489563,691.635010 591.524231,688.563965 596.456604,685.356445 
	C596.847900,685.101868 597.409668,685.109375 597.930664,685.439331 
	C597.658936,689.333740 597.441956,692.795410 597.021973,696.232300 
	C595.501953,708.669800 594.226318,721.148743 592.254333,733.515808 
	C590.620422,743.762573 588.135071,753.873596 586.026917,764.044800 
M444.482697,773.588196 
	C444.482697,773.588196 444.416351,773.477112 444.482697,773.588196 
z"/>
<path fill="#3F6CF3" opacity="1.000000" stroke="none" 
	d="
M540.854492,369.944885 
	C546.312622,365.027008 551.770813,360.109161 557.918518,355.083679 
	C559.313721,354.216522 560.019348,353.457062 560.725037,352.697571 
	C560.725037,352.697571 560.804504,352.681580 561.041077,352.874359 
	C562.887146,354.255188 564.534790,355.395355 566.098938,356.640381 
	C570.646179,360.260010 574.206665,365.635101 581.199646,364.842621 
	C581.931335,364.759674 583.134216,365.348145 583.488220,365.978851 
	C585.968506,370.397919 591.134705,373.715057 588.622498,380.379333 
	C591.905823,378.431610 588.781555,372.542755 594.581970,373.405426 
	C595.348511,376.669647 595.626709,380.097504 597.004333,383.004303 
	C598.087036,385.288605 600.549377,386.909027 602.360168,388.860352 
	C606.277588,393.082001 610.137634,397.357544 614.101013,401.535370 
	C614.874878,402.351166 615.992737,403.340668 616.981628,403.374268 
	C625.704041,403.670319 628.856567,412.085510 634.819824,416.251221 
	C641.566467,420.964203 645.616455,429.537445 650.973694,436.609802 
	C656.955383,432.822784 660.758545,436.963501 664.209106,440.602997 
	C667.070129,443.620758 668.739563,447.751953 671.531128,450.855347 
	C677.407104,457.387573 683.672852,463.569092 689.778809,469.894653 
	C692.454102,467.249786 695.687317,467.832153 698.318665,471.558807 
	C699.806824,473.666351 701.189331,475.877625 702.900024,477.791321 
	C704.874878,480.000702 707.158691,481.933899 709.326416,484.004211 
	C712.811279,481.456726 711.797974,487.230408 713.658020,487.826385 
	C714.658447,487.606781 716.183350,487.286316 716.535034,487.788086 
	C718.907776,491.173706 720.908447,494.821320 723.302368,498.190277 
	C724.167603,499.407867 725.782837,500.092499 727.055786,501.020355 
	C724.314026,506.587799 721.687439,512.215576 718.806763,517.710205 
	C712.665955,529.423340 706.407471,541.074890 700.161316,552.732544 
	C699.070129,554.768982 697.803345,556.711426 696.185669,558.579956 
	C691.702271,554.169250 687.826294,549.690735 683.546509,545.638672 
	C679.824646,542.114990 675.636169,539.085876 671.672668,535.815430 
	C667.056335,532.006409 662.386108,528.257568 657.883728,524.317505 
	C655.218384,521.984985 652.966675,519.176575 650.279419,516.873352 
	C647.969360,514.893494 645.305237,513.326721 642.797729,511.577301 
	C642.778137,511.686615 642.758545,511.795959 642.738953,511.905304 
	C639.158142,508.348877 635.577271,504.792450 631.729614,500.970978 
	C631.221375,502.335449 630.889038,503.227692 630.662231,503.836639 
	C627.863525,499.026520 625.001648,494.107727 622.193237,489.280884 
	C621.753662,490.378143 621.208435,491.739075 620.863342,492.600586 
	C618.951965,490.448975 617.145325,487.958191 614.885193,485.987488 
	C612.091980,483.551880 608.863586,481.623138 605.930847,479.337311 
	C602.896423,476.972229 599.990967,474.441772 597.016846,471.745911 
	C597.004578,471.508179 596.993469,471.031830 596.979492,470.730408 
	C596.648315,469.954071 596.331116,469.479156 595.884705,468.710938 
	C595.170166,467.277588 594.584900,466.137573 593.966187,464.629822 
	C590.006531,455.289062 586.618042,446.030914 582.042175,437.402435 
	C572.546509,419.496765 562.633484,401.801178 552.423950,384.292145 
	C549.364380,379.045074 544.754211,374.702087 540.854492,369.944885 
z"/>
<path fill="#4F6FF4" opacity="1.000000" stroke="none" 
	d="
M727.347595,500.846985 
	C725.782837,500.092499 724.167603,499.407867 723.302368,498.190277 
	C720.908447,494.821320 718.907776,491.173706 716.535034,487.788086 
	C716.183350,487.286316 714.658447,487.606781 713.658020,487.826385 
	C711.797974,487.230408 712.811279,481.456726 709.326416,484.004211 
	C707.158691,481.933899 704.874878,480.000702 702.900024,477.791321 
	C701.189331,475.877625 699.806824,473.666351 698.318665,471.558807 
	C695.687317,467.832153 692.454102,467.249786 689.778809,469.894653 
	C683.672852,463.569092 677.407104,457.387573 671.531128,450.855347 
	C668.739563,447.751953 667.070129,443.620758 664.209106,440.602997 
	C660.758545,436.963501 656.955383,432.822784 650.973694,436.609802 
	C645.616455,429.537445 641.566467,420.964203 634.819824,416.251221 
	C628.856567,412.085510 625.704041,403.670319 616.981628,403.374268 
	C615.992737,403.340668 614.874878,402.351166 614.101013,401.535370 
	C610.137634,397.357544 606.277588,393.082001 602.360168,388.860352 
	C600.549377,386.909027 598.087036,385.288605 597.004333,383.004303 
	C595.626709,380.097504 595.348511,376.669647 594.581970,373.405426 
	C588.781555,372.542755 591.905823,378.431610 588.622498,380.379333 
	C591.134705,373.715057 585.968506,370.397919 583.488220,365.978851 
	C583.134216,365.348145 581.931335,364.759674 581.199646,364.842621 
	C574.206665,365.635101 570.646179,360.260010 566.098938,356.640381 
	C564.534790,355.395355 562.887146,354.255188 561.016418,352.842163 
	C574.350525,342.191376 587.945862,331.765533 602.139526,321.161743 
	C603.153015,320.632874 603.568176,320.281891 603.983276,319.930908 
	C604.756226,319.276062 605.529236,318.621246 606.852539,318.204010 
	C611.652771,318.428314 614.625916,320.477631 617.380676,323.657166 
	C618.955505,325.474792 621.919067,326.010498 623.907410,327.569611 
	C626.120972,329.305328 627.937134,331.547913 630.766724,334.424042 
	C630.713501,339.827209 634.948486,343.652924 640.644470,346.418945 
	C646.279846,349.155579 651.611328,352.232025 654.747620,358.058258 
	C655.245972,358.983978 656.642761,359.378784 657.410767,360.215027 
	C660.365540,363.432312 663.689514,366.444000 665.975220,370.095978 
	C667.522949,372.568726 669.046753,373.405975 671.540771,372.878357 
	C673.701843,372.421204 675.795227,371.644257 677.297485,371.194550 
	C684.503601,376.059387 688.557068,382.387451 688.048950,391.978271 
	C688.866394,390.260254 689.186218,389.588104 689.570312,388.780762 
	C691.015686,395.490723 701.551270,399.674927 707.257629,396.532227 
	C710.178284,402.651306 713.018250,408.854218 716.091064,414.939514 
	C717.791199,418.306305 720.233398,420.261749 724.584717,420.325500 
	C727.042786,420.361511 730.115417,422.399689 731.765564,424.455536 
	C735.167114,428.693481 737.787964,433.556122 740.759705,438.142487 
	C741.404297,439.137360 742.002869,440.628693 742.916321,440.899048 
	C746.229553,441.879547 749.768616,442.152344 753.008972,443.296631 
	C754.304199,443.754059 755.044556,445.782440 756.037537,447.095703 
	C753.908630,451.528137 751.909241,456.028564 749.624512,460.379181 
	C744.509705,470.118652 739.281982,479.799347 734.039246,489.470886 
	C731.990234,493.250793 729.777527,496.941986 727.347595,500.846985 
z"/>
<path fill="#6172F5" opacity="1.000000" stroke="none" 
	d="
M756.322449,446.900635 
	C755.044556,445.782440 754.304199,443.754059 753.008972,443.296631 
	C749.768616,442.152344 746.229553,441.879547 742.916321,440.899048 
	C742.002869,440.628693 741.404297,439.137360 740.759705,438.142487 
	C737.787964,433.556122 735.167114,428.693481 731.765564,424.455536 
	C730.115417,422.399689 727.042786,420.361511 724.584717,420.325500 
	C720.233398,420.261749 717.791199,418.306305 716.091064,414.939514 
	C713.018250,408.854218 710.178284,402.651306 707.257629,396.532227 
	C701.551270,399.674927 691.015686,395.490723 689.570312,388.780762 
	C689.186218,389.588104 688.866394,390.260254 688.048950,391.978271 
	C688.557068,382.387451 684.503601,376.059387 677.297485,371.194550 
	C675.795227,371.644257 673.701843,372.421204 671.540771,372.878357 
	C669.046753,373.405975 667.522949,372.568726 665.975220,370.095978 
	C663.689514,366.444000 660.365540,363.432312 657.410767,360.215027 
	C656.642761,359.378784 655.245972,358.983978 654.747620,358.058258 
	C651.611328,352.232025 646.279846,349.155579 640.644470,346.418945 
	C634.948486,343.652924 630.713501,339.827209 630.766724,334.424042 
	C627.937134,331.547913 626.120972,329.305328 623.907410,327.569611 
	C621.919067,326.010498 618.955505,325.474792 617.380676,323.657166 
	C614.625916,320.477631 611.652771,318.428314 607.157349,318.127563 
	C620.246216,309.523315 633.476501,301.058411 646.958984,293.016357 
	C653.763062,288.957794 661.024048,285.665283 668.750244,282.104126 
	C671.989807,283.733063 674.856934,284.947266 677.062744,286.906097 
	C681.548706,290.889893 685.749634,295.205780 689.937683,299.511566 
	C697.167786,306.945007 704.298645,314.474945 711.470459,321.965118 
	C712.045898,322.566162 712.572205,323.222504 713.196411,323.767181 
	C715.528076,325.802032 717.818665,327.894562 720.262207,329.787842 
	C722.797913,331.752502 725.493103,333.511292 728.077148,335.330994 
	C728.092102,335.309296 728.544861,334.653442 728.998779,333.998779 
	C729.000000,334.000000 729.002441,334.002106 729.003479,334.399292 
	C729.887939,335.857391 730.980835,337.936768 731.618896,337.805481 
	C734.605042,337.191132 735.923767,338.532471 737.635071,340.737427 
	C739.687927,343.382446 742.496460,345.533356 745.249756,347.521759 
	C749.917969,350.893158 757.389404,349.954315 759.748474,357.012909 
	C760.006897,357.786194 761.335815,358.854645 761.988892,358.742432 
	C768.827148,357.567322 769.629700,364.228394 770.421021,367.275574 
	C772.103027,373.752014 777.557983,376.829285 780.512390,381.925232 
	C780.722961,382.288544 781.322327,382.426453 781.813232,382.711090 
	C782.928345,381.835693 784.019348,380.979218 785.110352,380.122711 
	C785.611755,380.221710 786.113098,380.320709 786.614502,380.419708 
	C786.410950,384.280945 786.207458,388.142151 786.003967,392.003357 
	C786.003967,392.003357 786.000000,392.000000 785.752808,392.164459 
	C785.336975,392.884979 785.168396,393.441040 784.999817,393.997101 
	C775.535706,411.566589 766.071533,429.136078 756.322449,446.900635 
z"/>
<path fill="#29BBD9" opacity="1.000000" stroke="none" 
	d="
M213.694473,388.138855 
	C206.773880,375.496368 199.849030,362.856171 192.936432,350.209320 
	C191.602402,347.768646 190.316376,345.301727 188.992142,342.099731 
	C188.245483,340.284729 187.514893,339.216888 186.784302,338.149078 
	C186.784302,338.149078 186.841827,338.045227 186.895752,337.664246 
	C187.060638,335.672638 187.171616,334.062012 187.256149,332.835327 
	C191.469452,331.272003 195.185104,329.968018 198.827606,328.484375 
	C199.641876,328.152710 200.836868,327.126617 200.776688,326.528931 
	C200.170578,320.510132 203.356812,318.564331 208.735992,318.522430 
	C209.603348,318.515656 210.426605,317.519196 211.334045,317.128387 
	C214.286377,315.856964 217.268311,314.654266 220.056335,313.500610 
	C223.502869,310.962555 226.918976,308.446899 230.573456,305.755707 
	C232.739838,308.220459 235.281937,310.800568 237.916290,307.456970 
	C239.641327,305.267548 240.097916,302.078674 241.265488,298.955292 
	C250.864670,307.051605 250.567642,294.394073 255.290298,292.086243 
	C260.700989,295.184143 264.027649,293.553711 265.096741,287.727386 
	C265.340302,286.400085 266.757050,284.262817 267.570068,284.291687 
	C268.994141,284.342346 270.443939,285.684662 271.728119,286.684631 
	C272.258453,287.097595 272.389069,288.023834 273.105316,289.612274 
	C278.090790,283.101379 281.151642,275.540955 289.581940,273.366272 
	C290.041443,273.934509 290.503784,274.929657 291.280396,275.368042 
	C292.463135,276.035645 294.123138,276.965210 295.096039,276.575195 
	C296.007355,276.209900 297.068542,273.964386 296.717834,273.080292 
	C294.811371,268.274719 298.224213,268.738708 300.955933,268.412048 
	C301.275208,268.304901 301.594513,268.197754 302.019440,268.577759 
	C302.412811,269.566223 302.700531,270.067535 302.988281,270.568848 
	C303.325409,270.089874 303.662567,269.610901 303.999756,269.131958 
	C311.503815,272.289490 319.267365,274.949951 326.459686,278.704651 
	C343.115295,287.399567 359.494537,296.623901 375.637573,305.930237 
	C369.866943,310.788605 364.444550,315.350372 358.413086,320.424530 
	C358.413086,318.199524 358.413086,316.730438 358.413086,315.261353 
	C357.925995,315.107788 357.438934,314.954254 356.951843,314.800690 
	C355.988800,317.469269 355.025757,320.137848 353.896057,323.268311 
	C352.080353,322.141235 350.481415,321.148743 349.899536,320.787537 
	C344.781219,323.259521 340.199371,325.050018 336.118011,327.631714 
	C334.234833,328.822906 333.302032,331.542938 331.996307,333.606415 
	C331.535217,334.335144 331.246460,335.172882 330.836609,336.051819 
	C327.103302,333.051697 322.491180,333.197449 319.147980,335.825104 
	C317.451782,337.158203 315.373657,338.004822 313.470093,339.074768 
	C309.084259,341.539856 304.411865,343.619507 300.404541,346.594757 
	C297.138580,349.019592 292.465118,350.180695 291.290100,355.028381 
	C291.187988,355.449646 289.673828,356.006866 289.139740,355.769989 
	C284.643768,353.775848 284.153534,356.868134 283.483765,359.964783 
	C283.189911,361.323517 282.599426,362.618073 282.012360,364.322906 
	C279.954254,363.078949 278.335175,362.100311 276.734192,361.132660 
	C274.221130,364.706299 274.222534,364.693420 269.590881,364.187012 
	C269.126129,364.136200 268.586914,364.269440 268.156860,364.473999 
	C262.971130,366.941223 257.299713,368.754089 252.739960,372.085632 
	C245.713043,377.219757 238.442734,380.401917 229.651215,380.037811 
	C222.910660,379.758636 217.566391,382.587646 213.694473,388.138855 
z"/>
<path fill="#25B3DB" opacity="1.000000" stroke="none" 
	d="
M213.763885,388.456055 
	C217.566391,382.587646 222.910660,379.758636 229.651215,380.037811 
	C238.442734,380.401917 245.713043,377.219757 252.739960,372.085632 
	C257.299713,368.754089 262.971130,366.941223 268.156860,364.473999 
	C268.586914,364.269440 269.126129,364.136200 269.590881,364.187012 
	C274.222534,364.693420 274.221130,364.706299 276.734192,361.132660 
	C278.335175,362.100311 279.954254,363.078949 282.012360,364.322906 
	C282.599426,362.618073 283.189911,361.323517 283.483765,359.964783 
	C284.153534,356.868134 284.643768,353.775848 289.139740,355.769989 
	C289.673828,356.006866 291.187988,355.449646 291.290100,355.028381 
	C292.465118,350.180695 297.138580,349.019592 300.404541,346.594757 
	C304.411865,343.619507 309.084259,341.539856 313.470093,339.074768 
	C315.373657,338.004822 317.451782,337.158203 319.147980,335.825104 
	C322.491180,333.197449 327.103302,333.051697 330.836609,336.051819 
	C331.246460,335.172882 331.535217,334.335144 331.996307,333.606415 
	C333.302032,331.542938 334.234833,328.822906 336.118011,327.631714 
	C340.199371,325.050018 344.781219,323.259521 349.899536,320.787537 
	C350.481415,321.148743 352.080353,322.141235 353.896057,323.268311 
	C355.025757,320.137848 355.988800,317.469269 356.951843,314.800690 
	C357.438934,314.954254 357.925995,315.107788 358.413086,315.261353 
	C358.413086,316.730438 358.413086,318.199524 358.413086,320.424530 
	C364.444550,315.350372 369.866943,310.788605 375.738342,306.236389 
	C391.403778,316.530029 406.620209,326.814178 421.984344,337.393433 
	C421.143341,338.541107 420.154694,339.393677 418.948090,340.434143 
	C420.082581,341.785828 420.972565,342.846191 422.000244,344.070618 
	C417.528625,348.397614 412.689209,351.817017 406.562103,350.376770 
	C398.976166,348.593658 395.337097,353.650482 391.026031,357.902893 
	C390.505066,358.416748 389.924713,359.614319 389.660522,359.534912 
	C384.264709,357.912476 383.964844,361.642090 383.714050,365.196136 
	C379.460815,368.318237 373.592255,360.711487 370.138184,367.574432 
	C371.397522,368.339783 372.661469,369.107910 373.925415,369.876038 
	C372.671692,371.007904 371.565704,372.391571 370.138977,373.228485 
	C363.613739,377.056335 357.361542,381.820587 349.066925,379.828461 
	C348.643494,385.886505 342.251160,390.989960 335.726074,389.844543 
	C329.226196,388.703461 324.782623,392.936096 318.855377,393.980042 
	C319.526215,395.547089 319.696686,396.631012 320.319519,397.282654 
	C323.165649,400.260773 321.784119,400.964447 318.553680,402.139709 
	C314.188477,403.727844 309.912537,405.917328 306.096069,408.566040 
	C301.496765,411.758057 298.214478,411.994385 293.798431,407.343201 
	C291.906128,410.253693 290.161896,412.936462 288.417694,415.619202 
	C288.789337,415.932617 289.160980,416.246063 289.532623,416.559479 
	C288.750214,416.704254 287.834259,417.189026 287.205627,416.942139 
	C279.394806,413.874695 275.141022,419.833984 269.950226,423.535767 
	C268.860443,424.312988 267.378571,424.571167 266.049225,424.976105 
	C261.875610,426.247314 257.688568,427.474487 253.515060,428.716217 
	C253.606033,430.306000 253.695007,431.861053 253.786087,433.452789 
	C244.769211,433.143677 243.844421,434.458771 244.911255,445.880859 
	C237.834991,433.440247 230.788239,420.567139 223.759338,407.684235 
	C221.463837,403.476929 219.214859,399.244202 216.881653,394.411743 
	C216.587402,393.539398 216.356049,393.278412 216.124710,393.017456 
	C216.124710,393.017456 215.909058,392.708710 215.858063,392.250458 
	C215.564255,391.532898 215.321457,391.273621 215.078644,391.014313 
	C214.663528,390.267273 214.248428,389.520264 213.763885,388.456055 
M414.853943,344.684509 
	C415.612793,343.827820 416.371674,342.971161 417.130554,342.114471 
	C416.498810,341.820618 415.867065,341.526733 415.235321,341.232880 
	C414.935760,342.221832 414.636230,343.210815 414.853943,344.684509 
M308.296661,399.431458 
	C308.010834,399.704346 307.725006,399.977203 307.439178,400.250092 
	C307.552277,400.368347 307.757538,400.595642 307.765259,400.589142 
	C308.066681,400.334473 308.350098,400.058502 308.296661,399.431458 
z"/>
<path fill="#0E7CE9" opacity="1.000000" stroke="none" 
	d="
M597.892212,684.995117 
	C597.409668,685.109375 596.847900,685.101868 596.456604,685.356445 
	C591.524231,688.563965 586.489563,691.635010 581.739075,695.095337 
	C577.192261,698.407166 573.015381,702.224121 568.515442,705.605591 
	C567.557312,706.325623 565.910156,706.147156 564.574524,706.342468 
	C561.921265,706.730286 558.841003,706.371521 556.706055,707.627930 
	C553.401550,709.572449 551.724609,714.269958 546.690491,713.325195 
	C546.445862,713.279297 545.932251,713.581055 545.869507,713.810059 
	C544.309937,719.496399 539.058899,718.435425 535.128906,720.016357 
	C532.683167,721.000183 530.963684,723.658630 528.693359,725.243286 
	C525.998108,727.124573 523.061340,728.659851 520.265320,730.323608 
	C518.362549,732.561768 516.297791,734.990417 513.912720,737.795837 
	C508.752136,731.309570 506.072174,737.848328 502.760742,739.055847 
	C494.763672,741.972168 486.998230,745.623108 479.400238,749.490417 
	C475.829712,751.307678 472.843018,754.283936 469.631927,756.786499 
	C468.883484,757.369812 468.423920,758.480957 467.614990,758.799438 
	C465.385559,759.677063 462.420380,759.646851 460.928772,761.149536 
	C459.608551,762.479553 459.877838,765.387451 459.476654,767.438904 
	C455.929016,769.565552 455.913177,760.664917 451.544952,765.292175 
	C449.578735,767.375000 446.906128,768.791016 444.074280,770.860168 
	C439.918427,768.889526 436.317719,771.021973 433.625397,778.355347 
	C429.499176,778.011719 426.110352,778.177368 429.636475,783.916321 
	C430.660248,785.582581 429.878204,788.358276 429.883148,791.030640 
	C426.875549,786.242188 423.799591,781.107300 420.966583,775.841675 
	C416.198914,766.980225 411.585571,758.035706 406.900787,748.424805 
	C406.250366,746.814453 405.606476,745.905457 404.962585,744.996460 
	C404.962555,744.996460 404.739319,744.728149 404.759705,744.554749 
	C405.463348,741.349854 406.801392,739.564331 410.374115,740.813416 
	C411.190704,741.098999 412.599426,740.410095 413.439819,739.776978 
	C416.230469,737.674683 418.926239,735.440125 421.582336,733.167419 
	C424.122314,730.994141 426.490234,728.563599 430.055695,731.667969 
	C430.243408,731.831360 432.250305,729.905212 433.322571,728.798584 
	C435.741272,727.097839 438.105347,725.310852 440.600342,723.730652 
	C441.971893,722.862061 444.245758,721.347595 444.945251,721.827209 
	C449.229462,724.764343 450.586151,720.909485 451.668060,718.698792 
	C453.377014,715.206787 455.002716,714.272400 458.474579,716.347717 
	C460.528931,717.575684 468.954712,712.594666 469.586426,709.250122 
	C470.511719,704.351135 472.561768,704.495911 475.152435,706.509094 
	C477.486969,704.483521 479.338501,702.542297 481.531769,701.132874 
	C482.456665,700.538513 484.809204,700.527893 485.300262,701.173767 
	C487.697723,704.327271 489.059387,702.428345 490.717682,700.540527 
	C494.207031,696.568115 497.335114,692.092712 501.455719,688.920349 
	C504.648438,686.462402 509.127136,685.679504 513.026001,684.131531 
	C514.270203,683.637573 516.004517,683.424927 516.632263,682.490723 
	C519.963135,677.533508 525.586365,676.536011 530.359436,674.070862 
	C531.925110,673.262268 533.440247,672.355408 534.971619,671.481262 
	C535.107910,671.403503 535.167908,671.169617 535.304688,671.118347 
	C539.593506,669.511902 544.161377,668.492065 547.092285,664.319153 
	C547.379639,663.909973 550.223633,665.296387 552.419434,666.029053 
	C552.575928,660.801575 555.674133,658.771851 560.257690,657.425842 
	C563.950012,656.341492 567.187500,653.742737 570.679565,651.916870 
	C571.492737,651.491699 572.705811,651.041016 573.418274,651.344727 
	C577.379028,653.033386 579.071899,650.642944 581.027100,647.840698 
	C582.353271,645.940002 584.478455,644.596741 586.421692,642.846191 
	C587.307373,643.496155 588.134338,643.979858 588.810974,644.621948 
	C591.105469,646.799255 592.323242,646.583374 593.113525,643.274353 
	C593.414673,642.013794 595.103821,641.084717 596.601318,640.355164 
	C597.051147,641.414307 597.059998,642.122864 597.127441,643.072815 
	C597.337402,643.625610 597.573853,643.845581 597.925964,644.443604 
	C597.935242,658.273621 597.913696,671.634338 597.892212,684.995117 
M526.296448,680.431335 
	C526.010681,680.704163 525.724854,680.976929 525.439026,681.249695 
	C525.552185,681.367981 525.757446,681.595459 525.765198,681.588928 
	C526.066589,681.334290 526.350037,681.058411 526.296448,680.431335 
z"/>
<path fill="#7375F6" opacity="1.000000" stroke="none" 
	d="
M728.997559,333.997559 
	C728.544861,334.653442 728.092102,335.309296 728.077148,335.330994 
	C725.493103,333.511292 722.797913,331.752502 720.262207,329.787842 
	C717.818665,327.894562 715.528076,325.802032 713.196411,323.767181 
	C712.572205,323.222504 712.045898,322.566162 711.470459,321.965118 
	C704.298645,314.474945 697.167786,306.945007 689.937683,299.511566 
	C685.749634,295.205780 681.548706,290.889893 677.062744,286.906097 
	C674.856934,284.947266 671.989807,283.733063 669.087646,282.009155 
	C686.433167,273.883881 704.097900,265.897125 721.804626,258.004425 
	C725.880859,256.187439 730.100952,254.693146 734.626343,253.366333 
	C735.363586,254.089981 735.820557,254.901093 736.080811,254.842224 
	C738.406921,254.315979 740.698364,253.636398 743.153198,253.356567 
	C743.525085,254.831238 744.146545,256.050842 743.898254,257.055511 
	C742.056213,264.508484 747.105591,268.916992 751.239136,273.592590 
	C753.065674,275.658722 755.649658,277.055237 758.001892,278.840820 
	C760.560425,276.752014 762.329712,277.579895 763.875854,281.879181 
	C764.450317,283.476410 765.565125,286.242767 766.296448,286.198730 
	C771.013123,285.914734 770.677002,288.949615 770.345947,292.110535 
	C778.404541,291.738953 781.103699,299.146912 785.940918,302.164246 
	C787.857239,301.222870 789.420227,300.455078 790.983276,299.687256 
	C790.802856,301.177948 790.805237,302.719055 790.410034,304.150391 
	C788.820557,309.906891 793.323975,305.703705 794.709961,306.645630 
	C795.373291,314.276337 802.914673,313.704254 807.490540,318.279663 
	C807.726501,315.819794 807.862488,314.401886 808.258423,313.186157 
	C809.094360,314.468475 809.670410,315.548645 810.246521,316.628784 
	C810.736389,316.622009 811.226318,316.615234 811.716248,316.608459 
	C812.458923,312.328003 813.201599,308.047546 814.131042,302.690430 
	C816.381714,306.555511 818.364563,309.216461 819.542664,312.195618 
	C820.692688,315.103851 821.189514,318.312897 821.638306,321.437927 
	C821.862549,322.999237 821.339783,324.667847 821.154907,326.287903 
	C812.753235,342.230927 804.363037,358.180023 795.943909,374.113800 
	C792.852783,379.963837 789.693237,385.777679 786.284424,391.805695 
	C786.207458,388.142151 786.410950,384.280945 786.614502,380.419708 
	C786.113098,380.320709 785.611755,380.221710 785.110352,380.122711 
	C784.019348,380.979218 782.928345,381.835693 781.813232,382.711090 
	C781.322327,382.426453 780.722961,382.288544 780.512390,381.925232 
	C777.557983,376.829285 772.103027,373.752014 770.421021,367.275574 
	C769.629700,364.228394 768.827148,357.567322 761.988892,358.742432 
	C761.335815,358.854645 760.006897,357.786194 759.748474,357.012909 
	C757.389404,349.954315 749.917969,350.893158 745.249756,347.521759 
	C742.496460,345.533356 739.687927,343.382446 737.635071,340.737427 
	C735.923767,338.532471 734.605042,337.191132 731.618896,337.805481 
	C730.980835,337.936768 729.887939,335.857391 729.143188,334.344360 
	C729.187134,333.927338 729.092346,333.962463 728.997559,333.997559 
z"/>
<path fill="#2B6AF2" opacity="1.000000" stroke="none" 
	d="
M597.029053,471.983673 
	C599.990967,474.441772 602.896423,476.972229 605.930847,479.337311 
	C608.863586,481.623138 612.091980,483.551880 614.885193,485.987488 
	C617.145325,487.958191 618.951965,490.448975 620.863342,492.600586 
	C621.208435,491.739075 621.753662,490.378143 622.193237,489.280884 
	C625.001648,494.107727 627.863525,499.026520 630.662231,503.836639 
	C630.889038,503.227692 631.221375,502.335449 631.729614,500.970978 
	C635.577271,504.792450 639.158142,508.348877 642.738953,511.905304 
	C642.758545,511.795959 642.778137,511.686615 642.797729,511.577301 
	C645.305237,513.326721 647.969360,514.893494 650.279419,516.873352 
	C652.966675,519.176575 655.218384,521.984985 657.883728,524.317505 
	C662.386108,528.257568 667.056335,532.006409 671.672668,535.815430 
	C675.636169,539.085876 679.824646,542.114990 683.546509,545.638672 
	C687.826294,549.690735 691.702271,554.169250 695.901062,558.777161 
	C692.296814,566.325073 688.592163,573.583252 684.783936,580.786682 
	C676.126221,597.163330 667.417664,613.513062 658.395874,629.643372 
	C657.596069,627.205078 657.880798,624.147034 656.523438,622.948486 
	C652.445984,619.348145 646.215820,618.281067 644.099487,612.282104 
	C644.027893,612.079163 643.261963,612.205566 642.988342,611.976746 
	C638.538147,608.255737 634.115295,604.502136 629.898682,600.935547 
	C629.702087,601.535461 629.131470,603.276794 628.118591,606.367493 
	C627.886108,603.203125 627.869507,601.438171 627.590393,599.715637 
	C627.403259,598.560608 627.038269,597.314331 626.346008,596.425903 
	C626.101929,596.112610 623.989624,596.561218 623.877563,596.973572 
	C623.582336,598.060608 623.537354,599.535706 624.071350,600.467224 
	C625.605957,603.144348 624.898499,604.487061 622.000000,604.558350 
	C621.650330,601.415039 621.311218,598.710938 620.968994,595.675537 
	C620.953613,594.902832 620.941406,594.461304 620.951538,593.759949 
	C620.958923,593.326782 620.944031,593.153564 620.942261,592.569031 
	C620.922791,590.787537 620.890198,589.417297 620.884705,587.773865 
	C620.893860,587.318542 620.875854,587.136414 620.880615,586.592651 
	C620.634644,584.824951 620.365845,583.419006 620.327576,581.813416 
	C620.362610,580.744873 620.167053,579.875977 619.967529,578.634155 
	C619.939575,577.516479 619.915649,576.771606 619.922241,575.581177 
	C619.287170,569.426880 618.621582,563.718140 617.968506,557.620361 
	C614.833435,541.213074 612.102173,525.097412 608.388672,509.211456 
	C605.994751,498.970520 602.159363,489.066528 598.944397,478.644897 
	C598.288879,476.180023 597.658936,474.081848 597.029053,471.983673 
z"/>
<path fill="#8879F8" opacity="1.000000" stroke="none" 
	d="
M743.000000,253.001953 
	C740.698364,253.636398 738.406921,254.315979 736.080811,254.842224 
	C735.820557,254.901093 735.363586,254.089981 734.995361,253.402237 
	C756.109558,246.741791 777.132019,240.023544 798.376770,234.103149 
	C811.921997,230.328430 825.728882,227.385056 839.543762,224.718063 
	C851.769043,222.357956 864.166565,220.888565 876.492737,219.057648 
	C877.081970,218.970139 877.716736,219.189941 878.797913,219.325089 
	C873.094360,230.027100 867.573792,240.409225 862.031799,250.779861 
	C849.108948,274.962128 836.176880,299.139374 823.241760,323.315033 
	C822.773682,324.189819 822.233948,325.026245 821.441223,326.084229 
	C821.339783,324.667847 821.862549,322.999237 821.638306,321.437927 
	C821.189514,318.312897 820.692688,315.103851 819.542664,312.195618 
	C818.364563,309.216461 816.381714,306.555511 814.131042,302.690430 
	C813.201599,308.047546 812.458923,312.328003 811.716248,316.608459 
	C811.226318,316.615234 810.736389,316.622009 810.246521,316.628784 
	C809.670410,315.548645 809.094360,314.468475 808.118103,312.868469 
	C804.566345,308.047699 801.027649,303.757660 807.982788,299.653503 
	C804.265503,296.778809 801.164246,294.380524 798.062988,291.982208 
	C798.261719,291.778961 798.460449,291.575684 798.659119,291.372437 
	C795.735718,290.504333 792.812378,289.636200 789.209595,288.566376 
	C788.570251,286.976410 787.566528,284.480438 786.543945,281.937469 
	C786.001587,282.580719 785.536377,283.132446 785.355164,283.347382 
	C782.703857,280.152954 780.285461,277.189789 777.808655,274.276276 
	C776.607300,272.863220 775.476196,270.820343 773.969421,270.445831 
	C773.029907,270.212341 771.448303,272.562256 770.761414,273.194550 
	C769.681824,270.975433 768.637390,268.484161 767.303894,266.158600 
	C764.451965,261.184631 761.310120,256.505585 754.819580,255.818115 
	C754.189819,255.751404 753.602173,254.771286 753.096191,254.134705 
	C749.729309,249.898468 748.070862,249.702789 743.000000,253.001953 
z"/>
<path fill="#2DC3D7" opacity="1.000000" stroke="none" 
	d="
M300.997742,268.017426 
	C298.224213,268.738708 294.811371,268.274719 296.717834,273.080292 
	C297.068542,273.964386 296.007355,276.209900 295.096039,276.575195 
	C294.123138,276.965210 292.463135,276.035645 291.280396,275.368042 
	C290.503784,274.929657 290.041443,273.934509 289.581940,273.366272 
	C281.151642,275.540955 278.090790,283.101379 273.105316,289.612274 
	C272.389069,288.023834 272.258453,287.097595 271.728119,286.684631 
	C270.443939,285.684662 268.994141,284.342346 267.570068,284.291687 
	C266.757050,284.262817 265.340302,286.400085 265.096741,287.727386 
	C264.027649,293.553711 260.700989,295.184143 255.290298,292.086243 
	C250.567642,294.394073 250.864670,307.051605 241.265488,298.955292 
	C240.097916,302.078674 239.641327,305.267548 237.916290,307.456970 
	C235.281937,310.800568 232.739838,308.220459 230.573456,305.755707 
	C226.918976,308.446899 223.502869,310.962555 220.056335,313.500610 
	C217.268311,314.654266 214.286377,315.856964 211.334045,317.128387 
	C210.426605,317.519196 209.603348,318.515656 208.735992,318.522430 
	C203.356812,318.564331 200.170578,320.510132 200.776688,326.528931 
	C200.836868,327.126617 199.641876,328.152710 198.827606,328.484375 
	C195.185104,329.968018 191.469452,331.272003 187.256149,332.835327 
	C187.171616,334.062012 187.060638,335.672638 186.900604,337.723389 
	C178.536270,322.775208 170.220993,307.386841 162.035843,291.305542 
	C165.414764,287.134766 168.663559,283.656982 171.318283,280.815125 
	C173.751358,281.001068 175.579330,281.641602 177.018524,281.148163 
	C180.175476,280.065765 183.294846,278.668976 186.138611,276.925842 
	C190.374802,274.329193 194.359741,271.322632 199.373291,267.852570 
	C200.684662,267.442352 203.542038,266.939270 206.027267,265.693634 
	C212.094543,262.652649 217.739822,258.582520 224.049377,256.283630 
	C227.722733,254.945221 229.550385,253.877945 229.367950,250.039307 
	C233.844025,251.133636 239.620697,248.616135 241.353592,245.015579 
	C241.683685,244.970825 241.959412,245.073074 242.765503,245.594513 
	C243.679535,245.868805 244.008850,245.870880 244.338150,245.872940 
	C256.273254,250.178299 268.258362,254.351501 280.124664,258.838837 
	C287.192780,261.511719 294.074188,264.678192 300.997742,268.017426 
z"/>
<path fill="#0B6BED" opacity="1.000000" stroke="none" 
	d="
M461.869812,851.723267 
	C461.846039,850.387756 462.097076,849.343506 461.882202,848.406006 
	C460.466797,842.231445 462.017059,840.026123 468.395020,838.989075 
	C472.740753,838.282471 477.307312,837.810425 478.302429,832.082642 
	C478.424744,831.378601 479.688324,830.514282 480.539642,830.357605 
	C484.178406,829.687866 485.595459,827.541870 485.107941,824.131714 
	C487.687042,822.878845 490.090912,821.711060 492.895935,820.348389 
	C495.278595,823.567932 497.207031,823.093567 500.453796,819.733459 
	C502.770416,817.335999 507.316925,816.608215 511.000122,816.110168 
	C520.711243,814.797058 530.551392,814.377258 540.221802,812.851746 
	C544.357849,812.199341 548.200012,809.683899 552.916626,807.703979 
	C554.256409,810.189758 555.989014,813.404297 557.924072,816.939453 
	C549.144958,834.109314 540.173035,850.963745 531.179077,867.806335 
	C521.431946,886.059387 511.666382,904.302551 501.892151,922.541138 
	C501.669830,922.955994 501.248260,923.264099 500.423950,924.161743 
	C487.494659,899.946167 474.711914,876.005005 461.869812,851.723267 
z"/>
<path fill="#2854D2" opacity="1.000000" stroke="none" 
	d="
M540.558289,370.087524 
	C544.754211,374.702087 549.364380,379.045074 552.423950,384.292145 
	C562.633484,401.801178 572.546509,419.496765 582.042175,437.402435 
	C586.618042,446.030914 590.006531,455.289062 593.670288,464.597351 
	C591.305603,463.806335 587.840454,466.977814 586.595032,462.570129 
	C586.297729,461.517822 584.071716,461.010498 582.732788,460.252533 
	C582.148682,461.513489 581.562439,462.773468 580.981934,464.036102 
	C580.839600,464.345612 580.716125,464.663818 580.425476,465.355133 
	C580.090332,463.899628 579.870056,462.942749 579.455200,461.140900 
	C579.080933,463.054840 578.887085,464.045959 578.587952,465.575714 
	C578.102356,464.267548 577.836304,463.550903 577.513916,462.682404 
	C577.129639,463.614471 576.811462,464.386230 576.334106,465.544250 
	C574.685242,462.484009 573.281250,459.878113 571.877197,457.272217 
	C571.402893,457.265228 570.928528,457.258270 570.454224,457.251282 
	C572.550598,467.839478 562.522888,462.606873 559.563293,467.249908 
	C557.286560,464.876190 555.350830,462.858032 553.760681,461.200165 
	C549.911560,463.251831 546.495361,462.580200 543.197144,460.295227 
	C542.974854,460.885437 542.764709,461.443268 542.429871,462.332153 
	C541.682556,460.491211 541.134705,459.141754 540.157227,456.734009 
	C539.652283,459.881104 539.318054,461.963928 538.983887,464.046753 
	C526.426880,446.595612 513.869934,429.144470 501.179016,411.389160 
	C514.117371,397.466736 527.189697,383.848450 540.558289,370.087524 
z"/>
<path fill="#32CAD5" opacity="1.000000" stroke="none" 
	d="
M229.000000,250.000000 
	C229.550385,253.877945 227.722733,254.945221 224.049377,256.283630 
	C217.739822,258.582520 212.094543,262.652649 206.027267,265.693634 
	C203.542038,266.939270 200.684662,267.442352 199.373291,267.852570 
	C194.359741,271.322632 190.374802,274.329193 186.138611,276.925842 
	C183.294846,278.668976 180.175476,280.065765 177.018524,281.148163 
	C175.579330,281.641602 173.751358,281.001068 171.318283,280.815125 
	C168.663559,283.656982 165.414764,287.134766 161.998215,290.956116 
	C153.785614,276.484558 145.737488,261.671265 137.697189,246.853683 
	C132.811920,237.850571 127.938766,228.840897 122.435402,218.680740 
	C159.830963,223.492065 195.534790,230.678314 230.794037,241.777100 
	C230.566681,244.993149 226.295258,246.573730 229.000000,250.000000 
z"/>
<path fill="#0C3AAF" opacity="1.000000" stroke="none" 
	d="
M620.096985,582.013000 
	C620.365845,583.419006 620.634644,584.824951 620.732056,586.700256 
	C620.507751,587.279785 620.380859,587.432617 620.415344,587.492554 
	C620.531921,587.695129 620.705750,587.864807 620.857666,588.047058 
	C620.890198,589.417297 620.922791,590.787537 620.699829,592.590210 
	C620.188599,593.182800 619.932983,593.342957 619.677429,593.503113 
	C620.094666,593.675354 620.511902,593.847595 620.929199,594.019836 
	C620.941406,594.461304 620.953613,594.902832 620.707397,595.892456 
	C620.632629,600.628845 620.816345,604.817078 620.993774,609.455688 
	C620.938416,616.524658 621.300537,623.177856 620.748352,629.754272 
	C619.808533,640.947998 618.966797,652.221741 616.867981,663.230103 
	C613.436646,681.228088 609.529419,699.171875 604.856323,716.883545 
	C601.789673,728.506348 597.021729,739.680176 593.015686,751.055115 
	C593.015686,751.055115 593.026306,750.990234 592.736145,751.128235 
	C592.272949,752.145874 592.099915,753.025513 591.926819,753.905151 
	C590.165283,757.177979 588.403809,760.450745 586.334595,763.884155 
	C588.135071,753.873596 590.620422,743.762573 592.254333,733.515808 
	C594.226318,721.148743 595.501953,708.669800 597.021973,696.232300 
	C597.441956,692.795410 597.658936,689.333740 597.930664,685.439270 
	C597.913696,671.634338 597.935242,658.273621 597.868042,644.205139 
	C597.617920,643.195068 597.381042,642.973022 597.068909,642.831360 
	C597.059998,642.122864 597.051147,641.414307 597.008850,640.352905 
	C595.152649,625.613831 593.449341,611.210999 591.450317,596.849365 
	C590.611145,590.820740 589.146118,584.879211 587.955078,578.193970 
	C587.671204,576.992188 587.397888,576.494629 587.124634,575.997009 
	C587.107544,575.826599 587.090454,575.656189 587.034180,574.945923 
	C586.722778,573.935364 586.450562,573.464661 586.178406,572.993958 
	C586.128296,572.250916 586.078186,571.507935 586.274780,570.392639 
	C586.521484,570.020386 587.011841,570.016418 587.290894,570.269226 
	C588.725525,575.439209 589.881104,580.356323 590.981995,585.040771 
	C599.396057,583.585022 594.357666,576.863708 596.762634,572.498291 
	C596.930481,575.962097 597.074280,578.929565 597.218079,581.897095 
	C597.528748,581.895203 597.839417,581.893311 598.150085,581.891418 
	C598.150085,578.996094 598.150085,576.100769 598.150085,573.205444 
	C598.392456,573.224060 598.634888,573.242676 598.877258,573.261292 
	C598.973816,574.848083 599.070374,576.434875 599.166931,578.021667 
	C599.322815,578.028015 599.478760,578.034424 599.634644,578.040833 
	C599.941772,576.126343 600.248901,574.211914 600.652954,571.693359 
	C603.721985,577.246521 606.337341,581.978760 609.424561,587.564880 
	C613.322937,583.267639 616.607300,579.647217 619.891724,576.026733 
	C619.915649,576.771606 619.939575,577.516479 619.719604,578.822693 
	C619.682800,580.260376 619.889893,581.136658 620.096985,582.013000 
z"/>
<path fill="#1168EC" opacity="1.000000" stroke="none" 
	d="
M593.372620,750.994507 
	C597.021729,739.680176 601.789673,728.506348 604.856323,716.883545 
	C609.529419,699.171875 613.436646,681.228088 616.867981,663.230103 
	C618.966797,652.221741 619.808533,640.947998 620.748352,629.754272 
	C621.300537,623.177856 620.938416,616.524658 621.229736,609.447754 
	C621.471985,608.989441 621.944031,608.979614 622.231995,609.222107 
	C624.565430,615.619629 626.610962,621.774597 628.767090,628.262390 
	C632.078674,627.559875 634.841919,632.596069 638.682983,629.164368 
	C638.840759,629.023438 639.741882,629.364929 639.964233,629.701294 
	C641.670105,632.282410 644.174194,634.746704 644.724915,637.578857 
	C645.450317,641.309998 645.902649,644.794495 649.105835,647.257202 
	C639.079346,666.242126 629.114929,685.260254 619.007019,704.201721 
	C610.669312,719.826172 602.161804,735.359985 593.372620,750.994507 
z"/>
<path fill="#1B69EF" opacity="1.000000" stroke="none" 
	d="
M649.385864,647.048523 
	C645.902649,644.794495 645.450317,641.309998 644.724915,637.578857 
	C644.174194,634.746704 641.670105,632.282410 639.964233,629.701294 
	C639.741882,629.364929 638.840759,629.023438 638.682983,629.164368 
	C634.841919,632.596069 632.078674,627.559875 628.767090,628.262390 
	C626.610962,621.774597 624.565430,615.619629 622.246887,608.824646 
	C621.986023,607.122314 621.998230,606.059937 622.010437,604.997559 
	C624.898499,604.487061 625.605957,603.144348 624.071350,600.467224 
	C623.537354,599.535706 623.582336,598.060608 623.877563,596.973572 
	C623.989624,596.561218 626.101929,596.112610 626.346008,596.425903 
	C627.038269,597.314331 627.403259,598.560608 627.590393,599.715637 
	C627.869507,601.438171 627.886108,603.203125 628.118591,606.367493 
	C629.131470,603.276794 629.702087,601.535461 629.898682,600.935547 
	C634.115295,604.502136 638.538147,608.255737 642.988342,611.976746 
	C643.261963,612.205566 644.027893,612.079163 644.099487,612.282104 
	C646.215820,618.281067 652.445984,619.348145 656.523438,622.948486 
	C657.880798,624.147034 657.596069,627.205078 658.097168,629.839722 
	C655.310181,635.790894 652.487976,641.315369 649.385864,647.048523 
M644.164185,620.949585 
	C644.414124,620.798889 644.799438,620.695007 644.872559,620.483276 
	C644.934937,620.302612 644.638489,619.998047 644.500793,619.748230 
	C644.362549,619.998230 644.224304,620.248230 644.164185,620.949585 
z"/>
<path fill="#30C8D6" opacity="1.000000" stroke="none" 
	d="
M229.367950,250.039307 
	C226.295258,246.573730 230.566681,244.993149 231.067902,242.023926 
	C234.425751,242.579865 237.726471,243.511841 241.190384,244.729706 
	C239.620697,248.616135 233.844025,251.133636 229.367950,250.039307 
z"/>
<path fill="#2DC3D7" opacity="1.000000" stroke="none" 
	d="
M186.823288,338.482880 
	C187.514893,339.216888 188.245483,340.284729 188.959564,341.748840 
	C188.249451,341.035675 187.555862,339.926178 186.823288,338.482880 
z"/>
<path fill="#1284E7" opacity="1.000000" stroke="none" 
	d="
M404.935577,745.369141 
	C405.606476,745.905457 406.250366,746.814453 406.862488,748.083130 
	C406.190002,747.542542 405.549286,746.642151 404.935577,745.369141 
z"/>
<path fill="#4F6FF4" opacity="1.000000" stroke="none" 
	d="
M560.429077,352.787292 
	C560.019348,353.457062 559.313721,354.216522 558.223633,354.955444 
	C558.603882,354.248871 559.368530,353.562927 560.429077,352.787292 
z"/>
<path fill="#2DC3D7" opacity="1.000000" stroke="none" 
	d="
M303.715790,269.004883 
	C303.662567,269.610901 303.325409,270.089874 302.988281,270.568848 
	C302.700531,270.067535 302.412811,269.566223 302.230438,268.723511 
	C302.701141,268.547333 303.066498,268.712555 303.715790,269.004883 
z"/>
<path fill="#1168EC" opacity="1.000000" stroke="none" 
	d="
M592.146362,753.677368 
	C592.099915,753.025513 592.272949,752.145874 592.766235,751.141418 
	C592.846313,751.827576 592.606079,752.638611 592.146362,753.677368 
z"/>
<path fill="#6172F5" opacity="1.000000" stroke="none" 
	d="
M603.702515,319.993103 
	C603.568176,320.281891 603.153015,320.632874 602.453247,321.020874 
	C602.586243,320.723724 603.003967,320.389526 603.702515,319.993103 
z"/>
<path fill="#7375F6" opacity="1.000000" stroke="none" 
	d="
M785.249512,393.835205 
	C785.168396,393.441040 785.336975,392.884979 785.754761,392.165741 
	C785.835754,392.559448 785.667480,393.116364 785.249512,393.835205 
z"/>
<path fill="#29BBD9" opacity="1.000000" stroke="none" 
	d="
M215.086060,391.295746 
	C215.321457,391.273621 215.564255,391.532898 215.847870,392.062439 
	C215.623596,392.080811 215.358536,391.829010 215.086060,391.295746 
z"/>
<path fill="#30C8D6" opacity="1.000000" stroke="none" 
	d="
M244.139832,245.614990 
	C244.008850,245.870880 243.679535,245.868805 242.858887,245.803192 
	C242.892181,245.612106 243.416840,245.484589 244.139832,245.614990 
z"/>
<path fill="#29BBD9" opacity="1.000000" stroke="none" 
	d="
M216.135056,393.291382 
	C216.356049,393.278412 216.587402,393.539398 216.853439,394.066498 
	C216.640564,394.076874 216.392975,393.821106 216.135056,393.291382 
z"/>
<path fill="#1A48C1" opacity="1.000000" stroke="none" 
	d="
M587.011841,570.016418 
	C587.011841,570.016418 586.521484,570.020386 586.276672,570.019958 
	C586.031860,570.019531 585.536194,570.000305 585.288757,569.988403 
	C585.041321,569.976501 584.997498,569.480347 584.984985,568.897461 
	C584.648376,567.539795 584.324158,566.764954 584.000000,565.990173 
	C579.067810,551.470215 574.548096,536.792236 569.066467,522.482727 
	C565.049011,511.995667 559.768921,501.992249 555.154419,491.112244 
	C556.560547,488.334991 558.062134,486.311646 559.109192,484.075470 
	C560.082947,481.996002 560.159424,478.110168 561.356934,477.797150 
	C564.250793,477.040771 567.568420,477.905579 570.772095,478.120605 
	C571.445679,476.683533 572.508911,474.415314 573.572083,472.147095 
	C574.169128,472.250488 574.766174,472.353912 575.363220,472.457306 
	C575.238037,474.587585 574.872314,476.739471 575.060974,478.841614 
	C575.222656,480.642548 571.259460,483.288696 575.867065,484.338318 
	C577.442566,482.150330 578.929993,480.084625 581.035461,477.160736 
	C583.045410,479.890991 584.575500,481.969452 586.651428,484.789276 
	C589.642151,478.599152 592.931946,474.964996 598.969971,479.011566 
	C602.159363,489.066528 605.994751,498.970520 608.388672,509.211456 
	C612.102173,525.097412 614.833435,541.213074 617.647339,557.590332 
	C616.261658,558.596558 614.294312,559.268250 614.310791,559.886902 
	C614.398621,563.170410 612.298462,563.479858 610.003784,563.438416 
	C608.840332,563.417358 607.708130,562.674561 606.525940,562.497131 
	C602.421936,561.881104 598.302612,561.367065 594.187927,560.822754 
	C593.736511,560.763062 593.277832,560.758301 592.694702,560.719604 
	C592.286621,561.898987 591.922363,562.951904 591.387024,564.499023 
	C591.020386,562.905029 590.803772,561.963074 590.695679,561.493042 
	C589.747070,562.992249 588.598511,564.474304 587.831543,566.132874 
	C587.290283,567.303406 587.266602,568.713379 587.011841,570.016418 
z"/>
<path fill="#214EC9" opacity="1.000000" stroke="none" 
	d="
M598.944397,478.644897 
	C592.931946,474.964996 589.642151,478.599152 586.651428,484.789276 
	C584.575500,481.969452 583.045410,479.890991 581.035461,477.160736 
	C578.929993,480.084625 577.442566,482.150330 575.867065,484.338318 
	C571.259460,483.288696 575.222656,480.642548 575.060974,478.841614 
	C574.872314,476.739471 575.238037,474.587585 575.363220,472.457306 
	C574.766174,472.353912 574.169128,472.250488 573.572083,472.147095 
	C572.508911,474.415314 571.445679,476.683533 570.772095,478.120605 
	C567.568420,477.905579 564.250793,477.040771 561.356934,477.797150 
	C560.159424,478.110168 560.082947,481.996002 559.109192,484.075470 
	C558.062134,486.311646 556.560547,488.334991 555.105469,490.755798 
	C551.814270,485.518616 548.674927,479.976837 545.255981,474.245941 
	C544.398621,473.235046 543.820862,472.413239 543.121155,470.973206 
	C543.754883,467.677155 542.951294,466.087616 539.971558,466.016907 
	C539.971558,466.016907 539.993225,465.995575 539.899170,465.791565 
	C539.626404,465.313171 539.383118,465.119904 539.075439,465.007721 
	C539.075439,465.007721 539.027649,464.527008 539.005737,464.286865 
	C539.318054,461.963928 539.652283,459.881104 540.157227,456.734009 
	C541.134705,459.141754 541.682556,460.491211 542.429871,462.332153 
	C542.764709,461.443268 542.974854,460.885437 543.197144,460.295227 
	C546.495361,462.580200 549.911560,463.251831 553.760681,461.200165 
	C555.350830,462.858032 557.286560,464.876190 559.563293,467.249908 
	C562.522888,462.606873 572.550598,467.839478 570.454224,457.251282 
	C570.928528,457.258270 571.402893,457.265228 571.877197,457.272217 
	C573.281250,459.878113 574.685242,462.484009 576.334106,465.544250 
	C576.811462,464.386230 577.129639,463.614471 577.513916,462.682404 
	C577.836304,463.550903 578.102356,464.267548 578.587952,465.575714 
	C578.887085,464.045959 579.080933,463.054840 579.455200,461.140900 
	C579.870056,462.942749 580.090332,463.899628 580.425476,465.355133 
	C580.716125,464.663818 580.839600,464.345612 580.981934,464.036102 
	C581.562439,462.773468 582.148682,461.513489 582.732788,460.252533 
	C584.071716,461.010498 586.297729,461.517822 586.595032,462.570129 
	C587.840454,466.977814 591.305603,463.806335 593.703735,464.965057 
	C594.584900,466.137573 595.170166,467.277588 595.894714,469.012390 
	C596.353821,470.082062 596.673645,470.556946 596.993469,471.031830 
	C596.993469,471.031830 597.004578,471.508179 597.016846,471.745911 
	C597.658936,474.081848 598.288879,476.180023 598.944397,478.644897 
z"/>
<path fill="#1284E7" opacity="1.000000" stroke="none" 
	d="
M583.998169,566.325378 
	C584.324158,566.764954 584.648376,567.539795 584.953186,568.650513 
	C584.621277,568.211182 584.308777,567.435852 583.998169,566.325378 
z"/>
<path fill="#2854D2" opacity="1.000000" stroke="none" 
	d="
M540.005859,466.357361 
	C542.951294,466.087616 543.754883,467.677155 542.991089,470.699615 
	C542.002014,469.595490 541.021118,468.146637 540.005859,466.357361 
z"/>
<path fill="#2854D2" opacity="1.000000" stroke="none" 
	d="
M539.146484,465.238831 
	C539.383118,465.119904 539.626404,465.313171 539.897583,465.805969 
	C539.661011,465.939148 539.403442,465.754333 539.146484,465.238831 
z"/>
<path fill="#1A48C1" opacity="1.000000" stroke="none" 
	d="
M587.099487,576.296753 
	C587.397888,576.494629 587.671204,576.992188 587.934937,577.790222 
	C587.641785,577.592590 587.358093,577.094543 587.099487,576.296753 
z"/>
<path fill="#1A48C1" opacity="1.000000" stroke="none" 
	d="
M586.146851,573.288574 
	C586.450562,573.464661 586.722778,573.935364 587.009827,574.690063 
	C586.721558,574.510498 586.418457,574.046875 586.146851,573.288574 
z"/>
<path fill="#0E7CE9" opacity="1.000000" stroke="none" 
	d="
M444.449524,773.532654 
	C444.416351,773.477112 444.482697,773.588196 444.449524,773.532654 
z"/>
<path fill="#2B6AF2" opacity="1.000000" stroke="none" 
	d="
M596.979492,470.730408 
	C596.673645,470.556946 596.353821,470.082062 596.023987,469.305695 
	C596.331116,469.479156 596.648315,469.954071 596.979492,470.730408 
z"/>
<path fill="#21A9DD" opacity="1.000000" stroke="none" 
	d="
M414.595306,344.442139 
	C414.636230,343.210815 414.935760,342.221832 415.235321,341.232880 
	C415.867065,341.526733 416.498810,341.820618 417.130554,342.114471 
	C416.371674,342.971161 415.612793,343.827820 414.595306,344.442139 
z"/>
<path fill="#21A9DD" opacity="1.000000" stroke="none" 
	d="
M308.466278,399.608398 
	C308.350098,400.058502 308.066681,400.334473 307.765259,400.589142 
	C307.757538,400.595642 307.552277,400.368347 307.439178,400.250092 
	C307.725006,399.977203 308.010834,399.704346 308.466278,399.608398 
z"/>
<path fill="#1284E7" opacity="1.000000" stroke="none" 
	d="
M526.466187,680.608337 
	C526.350037,681.058411 526.066589,681.334290 525.765198,681.588928 
	C525.757446,681.595459 525.552185,681.367981 525.439026,681.249695 
	C525.724854,680.976929 526.010681,680.704163 526.466187,680.608337 
z"/>
<path fill="#0C77EA" opacity="1.000000" stroke="none" 
	d="
M597.127441,643.072815 
	C597.381042,642.973022 597.617920,643.195068 597.837280,643.735840 
	C597.573853,643.845581 597.337402,643.625610 597.127441,643.072815 
z"/>
<path fill="#7E77F7" opacity="1.000000" stroke="none" 
	d="
M743.153198,253.356552 
	C748.070862,249.702789 749.729309,249.898468 753.096191,254.134705 
	C753.602173,254.771286 754.189819,255.751404 754.819580,255.818115 
	C761.310120,256.505585 764.451965,261.184631 767.303894,266.158600 
	C768.637390,268.484161 769.681824,270.975433 770.761414,273.194550 
	C771.448303,272.562256 773.029907,270.212341 773.969421,270.445831 
	C775.476196,270.820343 776.607300,272.863220 777.808655,274.276276 
	C780.285461,277.189789 782.703857,280.152954 785.355164,283.347382 
	C785.536377,283.132446 786.001587,282.580719 786.543945,281.937469 
	C787.566528,284.480438 788.570251,286.976410 789.209595,288.566376 
	C792.812378,289.636200 795.735718,290.504333 798.659119,291.372437 
	C798.460449,291.575684 798.261719,291.778961 798.062988,291.982208 
	C801.164246,294.380524 804.265503,296.778809 807.982788,299.653503 
	C801.027649,303.757660 804.566345,308.047699 807.858154,312.666290 
	C807.862488,314.401886 807.726501,315.819794 807.490540,318.279663 
	C802.914673,313.704254 795.373291,314.276337 794.709961,306.645630 
	C793.323975,305.703705 788.820557,309.906891 790.410034,304.150391 
	C790.805237,302.719055 790.802856,301.177948 790.983276,299.687256 
	C789.420227,300.455078 787.857239,301.222870 785.940918,302.164246 
	C781.103699,299.146912 778.404541,291.738953 770.345947,292.110535 
	C770.677002,288.949615 771.013123,285.914734 766.296448,286.198730 
	C765.565125,286.242767 764.450317,283.476410 763.875854,281.879181 
	C762.329712,277.579895 760.560425,276.752014 758.001892,278.840820 
	C755.649658,277.055237 753.065674,275.658722 751.239136,273.592590 
	C747.105591,268.916992 742.056213,264.508484 743.898254,257.055511 
	C744.146545,256.050842 743.525085,254.831238 743.153198,253.356552 
z"/>
<path fill="#6172F5" opacity="1.000000" stroke="none" 
	d="
M728.998779,333.998779 
	C729.092346,333.962463 729.187134,333.927338 729.142212,333.947174 
	C729.002441,334.002106 729.000000,334.000000 728.998779,333.998779 
z"/>
<path fill="#1240B7" opacity="1.000000" stroke="none" 
	d="
M587.290833,570.269226 
	C587.266602,568.713379 587.290283,567.303406 587.831543,566.132874 
	C588.598511,564.474304 589.747070,562.992249 590.695679,561.493042 
	C590.803772,561.963074 591.020386,562.905029 591.387024,564.499023 
	C591.922363,562.951904 592.286621,561.898987 592.694702,560.719604 
	C593.277832,560.758301 593.736511,560.763062 594.187927,560.822754 
	C598.302612,561.367065 602.421936,561.881104 606.525940,562.497131 
	C607.708130,562.674561 608.840332,563.417358 610.003784,563.438416 
	C612.298462,563.479858 614.398621,563.170410 614.310791,559.886902 
	C614.294312,559.268250 616.261658,558.596558 617.634766,557.979370 
	C618.621582,563.718140 619.287170,569.426880 619.922241,575.581177 
	C616.607300,579.647217 613.322937,583.267639 609.424561,587.564880 
	C606.337341,581.978760 603.721985,577.246521 600.652954,571.693359 
	C600.248901,574.211914 599.941772,576.126343 599.634644,578.040833 
	C599.478760,578.034424 599.322815,578.028015 599.166931,578.021667 
	C599.070374,576.434875 598.973816,574.848083 598.877258,573.261292 
	C598.634888,573.242676 598.392456,573.224060 598.150085,573.205444 
	C598.150085,576.100769 598.150085,578.996094 598.150085,581.891418 
	C597.839417,581.893311 597.528748,581.895203 597.218079,581.897095 
	C597.074280,578.929565 596.930481,575.962097 596.762634,572.498291 
	C594.357666,576.863708 599.396057,583.585022 590.981995,585.040771 
	C589.881104,580.356323 588.725525,575.439209 587.290833,570.269226 
M595.818115,565.970886 
	C595.724060,565.563965 595.629944,565.157104 595.535889,564.750183 
	C595.416077,564.840210 595.185181,564.945129 595.194885,565.017822 
	C595.250305,565.430542 595.363159,565.835571 595.818115,565.970886 
M602.474976,570.374939 
	C602.529358,570.161804 602.583740,569.948608 602.638123,569.735474 
	C602.504639,569.872192 602.371155,570.008911 602.474976,570.374939 
z"/>
<path fill="#1F4DC7" opacity="1.000000" stroke="none" 
	d="
M622.000000,604.558350 
	C621.998230,606.059937 621.986023,607.122314 621.958923,608.582153 
	C621.944031,608.979614 621.471985,608.989441 621.236023,608.997375 
	C620.816345,604.817078 620.632629,600.628845 620.710571,596.223755 
	C621.311218,598.710938 621.650330,601.415039 622.000000,604.558350 
z"/>
<path fill="#1F4DC7" opacity="1.000000" stroke="none" 
	d="
M620.327576,581.813416 
	C619.889893,581.136658 619.682800,580.260376 619.723633,579.195557 
	C620.167053,579.875977 620.362610,580.744873 620.327576,581.813416 
z"/>
<path fill="#1F4DC7" opacity="1.000000" stroke="none" 
	d="
M620.951538,593.759949 
	C620.511902,593.847595 620.094666,593.675354 619.677429,593.503113 
	C619.932983,593.342957 620.188599,593.182800 620.686646,593.001465 
	C620.944031,593.153564 620.958923,593.326782 620.951538,593.759949 
z"/>
<path fill="#1F4DC7" opacity="1.000000" stroke="none" 
	d="
M620.884766,587.773865 
	C620.705750,587.864807 620.531921,587.695129 620.415344,587.492554 
	C620.380859,587.432617 620.507751,587.279785 620.709229,587.061890 
	C620.875854,587.136414 620.893860,587.318542 620.884766,587.773865 
z"/>
<path fill="#2B6AF2" opacity="1.000000" stroke="none" 
	d="
M644.125122,620.723877 
	C644.224304,620.248230 644.362549,619.998230 644.500793,619.748230 
	C644.638489,619.998047 644.934937,620.302612 644.872559,620.483276 
	C644.799438,620.695007 644.414124,620.798889 644.125122,620.723877 
z"/>
<path fill="#1A48C1" opacity="1.000000" stroke="none" 
	d="
M595.637329,566.107056 
	C595.363159,565.835571 595.250305,565.430542 595.194885,565.017822 
	C595.185181,564.945129 595.416077,564.840210 595.535889,564.750183 
	C595.629944,565.157104 595.724060,565.563965 595.637329,566.107056 
z"/>
<path fill="#0C3AAF" opacity="1.000000" stroke="none" 
	d="
M602.356323,570.260315 
	C602.371155,570.008911 602.504639,569.872192 602.638123,569.735474 
	C602.583740,569.948608 602.529358,570.161804 602.356323,570.260315 
z"/>
</svg>